<?xml version="1.0" encoding="UTF-8" standalone="no"?>
<svg width="79px" height="67px" viewBox="0 0 79 67" version="1.1" xmlns="http://www.w3.org/2000/svg" xmlns:xlink="http://www.w3.org/1999/xlink" xmlns:sketch="http://www.bohemiancoding.com/sketch/ns">
    <title>Untitled</title>
    <description>Created with Sketch (http://www.bohemiancoding.com/sketch)</description>
    <defs></defs>
    <g id="Page-1" stroke="none" stroke-width="1" fill="none" fill-rule="evenodd" sketch:type="MSPage">
        <g id="pirate-cloud" sketch:type="MSLayerGroup" transform="translate(-9.000000, -22.000000)" fill="#000000">
            <g id="Page-1" sketch:type="MSShapeGroup">
                <g id="crossbones-+-mojolicious">
                    <path d="M55.7107757,26.225369 C56.7774908,25.2384848 58.0531437,24.5505641 59.3984585,24.1451722 C61.9862654,23.3651577 64.8579486,23.5699373 67.2782568,24.8673371 C71.5676279,27.1666481 73.2143921,32.7484848 69.8291267,36.7975245 C74.0620518,40.3482148 74.0557585,46.3645414 69.9488447,50.0202688 C67.4185974,52.2725999 64.1258437,53.1791963 60.9072057,53.181504 C59.1920866,53.1671628 57.4966703,52.7485968 55.9016565,52.0752514 C53.1730733,53.3263669 50.759833,55.2301897 47.0734089,55.2301897 C42.4557693,55.2301897 40.8992414,53.2442098 38.0184086,51.787141 C37.2113649,52.668154 36.3096312,53.9221048 33.6700257,54.0072621 C32.390258,53.9221048 30.172449,54.0823639 27.3839148,51.787141 C24.5953908,49.4919181 25.1604516,44.8063916 27.3839148,43.1165334 C22.7754102,39.3273172 24.0773816,32.4855953 28.9287904,29.7699931 C32.2293914,27.9223813 34.9661075,29.3918132 35.869584,29.9074051 C37.7318696,25.1454547 42.734127,22.1274565 47.0734089,22.1730407 C50.3453463,22.192246 53.5272411,23.5271312 55.7107757,26.225369 L55.7107757,26.225369 Z" id="Shape"></path>
                    <path d="M48.8577719,67.2828464 C36.1926112,63.0131053 23.5961287,57.5758679 23.5961287,57.5758679 C23.5961287,57.5758679 21.9461498,52.4792807 20.1357008,51.5871443 C18.3252518,50.695008 14.5371612,52.1757799 13.1715646,53.7424176 C11.805968,55.3090553 13.9639274,58.6675172 13.9639274,58.6675172 C13.9639274,58.6675172 9.68167183,60.5158471 9.87094095,61.7883261 C10.0602101,63.0608051 11.9557206,66.1062129 14.922087,66.875572 C17.8884535,67.6449312 21.0832068,65.1847164 21.0832068,65.1847164 C21.0832068,65.1847164 30.2395562,67.2853657 39.8820349,70.1232856 C29.7035841,73.1629665 20.7860775,75.2931481 20.7860775,75.2931481 C20.7860775,75.2931481 15.8288164,71.1434127 13.971092,71.9481373 C12.1133675,72.752862 9.14766692,76.3801268 10.0225952,78.1637322 C10.8975235,79.9473376 12.8511305,81.2078051 12.8511305,81.2078051 C12.8511305,81.2078051 11.3756045,85.1420132 12.1133675,86.4565297 C12.8511305,87.7710462 17.7624479,88.6304864 19.7060671,87.7290083 C21.6496863,86.8275303 22.9108082,82.9707255 22.9108082,82.9707255 C22.9108082,82.9707255 37.6104103,76.863897 48.8577719,72.9778823 C60.1051335,76.863897 74.8047357,82.9707255 74.8047357,82.9707255 C74.8047357,82.9707255 76.0658576,86.8275303 78.0094768,87.7290083 C79.953096,88.6304864 84.8644134,87.7710462 85.6021764,86.4565297 C86.3399393,85.1420132 84.8644134,81.2078051 84.8644134,81.2078051 C84.8644134,81.2078051 86.8180204,79.9473376 87.6929487,78.1637322 C88.567877,76.3801268 85.6021764,72.752862 83.7444519,71.9481373 C81.8867275,71.1434127 76.9294664,75.2931481 76.9294664,75.2931481 C76.9294664,75.2931481 68.0119598,73.1629665 57.833509,70.1232856 C67.4759877,67.2853657 76.632337,65.1847164 76.632337,65.1847164 C76.632337,65.1847164 79.8270904,67.6449312 82.7934568,66.875572 C85.7598233,66.1062129 87.6553338,63.0608051 87.8446029,61.7883261 C88.033872,60.5158471 83.7516165,58.6675172 83.7516165,58.6675172 C83.7516165,58.6675172 85.9095758,55.3090553 84.5439793,53.7424176 C83.1783827,52.1757799 79.3902921,50.695008 77.5798431,51.5871443 C75.7693941,52.4792807 74.1194152,57.5758679 74.1194152,57.5758679 C74.1194152,57.5758679 61.5229326,63.0131053 48.8577719,67.2828464 L48.8577719,67.2828464 Z" id="Path-3"></path>
                </g>
            </g>
        </g>
    </g>
</svg>